# xmcd CD database file
#
# Track frame offsets:
#	150
#	17487
#	25642
#	41690
#	56522
#	67632
#	78897
#	88422
#	97115
#	109597
#	118150
#	131625
#	149530
#	164945
#	179290
#	190700
#	204035
#	217427
#	231462
#	243425
#	263302
#	282815
#	294237
#	303312
#	312527
#
# Disc length: 4314 seconds
#
# Revision: 0
# Processed by: cddbd v1.5.1PL0 Copyright (c) Steve Scherf et al.
# Submitted via: CDex 1.51
#
DISCID=6810d819
DTITLE=Variés - 25 Succès country Vol. 2
DYEAR=1900
DGENRE=Country
TTITLE0=Jean-Rock Cummings - Un jour à la fois
TTITLE1=Julie - Partir pour la gaspésie
TTITLE2=Julie et André - Comme avant
TTITLE3=Conrad Stéphane - Ce cowboy doit s'en aller
TTITLE4=Réjean Savoie - Dieu aime la musique country
TTITLE5=Bernard Harvie - Guitar Cadillac
TTITLE6=Sylvie Bélair - Les cloches de ma vallée
TTITLE7=Faby - Je chante pour vous
TTITLE8=Liette Vaudry - Ne sais-tu pas combien je t'aime
TTITLE9=Chantal hamel - Par un voyage en Gaspésie
TTITLE10=Lyne Beauchamps - Combien de fois ai-je vu
TTITLE11=Michel Maltais - Prière de la sérénité
TTITLE12=Noël Gagné - Mon grand cheval jaune
TTITLE13=Anthony - À mon pauvre coeur (Achy breaky heart)
TTITLE14=Manon - Pourquoi
TTITLE15=Julie et André - Téléphone-moi
TTITLE16=Bernard Harvie - Madelinot
TTITLE17=Jane - Quand le soleil dit bonjour aux montagnes
TTITLE18=Jean-Rock Cummings - Frolick des Acadiens
TTITLE19=Lionel et Pierre - Lucille
TTITLE20=Régis Gagné - Ne me quitte pas
TTITLE21=Johanne et Philippe - Mon grand amour
TTITLE22=Marie King - La prière d'un aveugle
TTITLE23=Réjean Savoie - Le country
TTITLE24=Julie - Hommage aux pêcheurs
EXTD=
EXTT0=
EXTT1=
EXTT2=
EXTT3=
EXTT4=
EXTT5=
EXTT6=
EXTT7=
EXTT8=
EXTT9=
EXTT10=
EXTT11=
EXTT12=
EXTT13=
EXTT14=
EXTT15=
EXTT16=
EXTT17=
EXTT18=
EXTT19=
EXTT20=
EXTT21=
EXTT22=
EXTT23=
EXTT24=
PLAYORDER=
